<svg xmlns="http://www.w3.org/2000/svg" xmlns:xlink="http://www.w3.org/1999/xlink" width="100%" height="100%"
     viewBox="0 0 32 1184">
    <symbol id="cz-icon-componentz-logo" viewBox="0 0 32 32">
        <path d="M1.93 11.385v13.206l11.344 6.501 0.014-13.123z"/>
        <path d="M25.967 11.385l0.014 13.122-11.379 6.585 0.022-13.116z"/>
        <path d="M15.736 0.908l0.008 13.5 11.691-6.658z"/>
        <path d="M13.325 3.418l-0.007 12.788-11.075-6.307z"/>
    </symbol>
    <symbol id="cz-icon-bbpress" viewBox="0 0 32 32">
        <path d="M22.342 15.999c1.945 0 3.524-1.579 3.524-3.524s-1.579-3.524-3.524-3.524-3.524 1.579-3.524 3.524 1.579 3.524 3.524 3.524zM11.771 14.59c2.34 0 4.229-1.889 4.229-4.229s-1.889-4.229-4.229-4.229-4.229 1.889-4.229 4.229 1.889 4.229 4.229 4.229zM22.342 18.819c-2.579 0-7.753 1.297-7.753 3.876v3.172h15.506v-3.172c0-2.579-5.173-3.876-7.753-3.876zM11.771 17.409c-3.284 0-9.867 1.649-9.867 4.933v3.524h9.867v-3.172c0-1.198 0.466-3.299 3.341-4.891-1.227-0.254-2.411-0.395-3.341-0.395z"/>
    </symbol>
    <symbol id="cz-icon-layout" viewBox="0 0 32 32">
        <path d="M11.624 14.541h8.75v-4.375l5.833 5.833-5.833 5.833v-4.375h-8.751v4.375l-5.833-5.833 5.833-5.833v4.375zM1.416 27.667v-23.333h2.917v23.333h-2.917zM27.667 27.667v-23.333h2.917v23.333h-2.917z"/>
    </symbol>
    <symbol id="cz-icon-blog" viewBox="0 0 32 32">
        <path d="M28.312 9.313c0.585-0.585 0.585-1.56 0-2.115l-3.509-3.509c-0.555-0.585-1.529-0.585-2.115 0l-2.939 2.939 5.624 5.624zM23.872 13.752l-5.624-5.624-14.998 14.998v5.624h5.624l14.998-14.998z"/>
    </symbol>
    <symbol id="cz-icon-mobile" viewBox="0 0 32 32">
        <path d="M23.001 24.001h-14.001v-18.667h14.001zM18.667 28h-5.333v-1.334h5.333zM21.333 1.333h-10.667c-2.213 0-4 1.787-4 4v21.334c0 2.213 1.787 4 4 4h10.667c2.213 0 4-1.787 4-4v-21.334c0-2.213-1.787-4-4-4z"/>
    </symbol>
    <symbol id="cz-icon-close" viewBox="0 0 32 32">
        <path d="M25.667 8.281l-1.947-1.947-7.719 7.719-7.719-7.719-1.947 1.947 7.719 7.719-7.719 7.719 1.947 1.947 7.719-7.719 7.719 7.719 1.947-1.947-7.719-7.719 7.719-7.719z"/>
    </symbol>
    <symbol id="cz-icon-sidebar" viewBox="0 0 32 32">
        <path d="M17.587 4.889h12.698v22.222h-12.698v-22.222zM1.714 4.889h12.698v3.175h-12.698v-3.175zM1.714 14.413v-3.175h12.698v3.175h-12.698zM1.714 27.111v-3.175h12.698v3.175h-12.698zM1.714 20.762v-3.175h12.698v3.175h-12.698z"/>
    </symbol>
    <symbol id="cz-icon-logo" viewBox="0 0 32 32">
        <path d="M29.2 22.6c0 0.558-0.308 1.041-0.777 1.29l-11.587 6.512c-0.234 0.176-0.528 0.264-0.836 0.264s-0.601-0.088-0.836-0.264l-11.587-6.512c-0.469-0.249-0.777-0.733-0.777-1.29v-13.201c0-0.558 0.308-1.041 0.777-1.29l11.587-6.512c0.234-0.176 0.528-0.264 0.836-0.264s0.601 0.088 0.836 0.264l11.587 6.512c0.469 0.249 0.777 0.733 0.777 1.29v13.201zM15.999 4.487l-8.742 4.914 8.742 4.914 8.742-4.914-8.742-4.914zM5.733 21.735l8.801 4.958v-9.842l-8.801-4.943v9.827zM26.267 21.735v-9.827l-8.801 4.943v9.842l8.801-4.958z"/>
    </symbol>
    <symbol id="cz-icon-menu" viewBox="0 0 32 32">
        <path d="M6.143 4.5h19.714v3.286h-19.714zM7.785 14.358h16.429v3.286h-16.429zM5.322 24.214h21.357v3.286h-21.357z"/>
    </symbol>
    <symbol id="cz-icon-button" viewBox="0 0 32 32">
        <path d="M19.771 12.884l0.953 0.197 6.308 3.147c1.059 0.348 1.755 1.392 1.664 2.511v0.393l-1.362 9.258c-0.091 0.65-0.378 1.256-0.908 1.679-0.469 0.454-1.089 0.681-1.739 0.681h-10.408c-0.741 0-1.422-0.272-1.921-0.802l-9.062-9.031 1.362-1.513c0.363-0.378 0.938-0.59 1.482-0.56h0.439l6.006 1.316v-15.885c0-1.664 1.362-3.026 3.026-3.026s3.026 1.362 3.026 3.026v8.608h1.134z"/>
    </symbol>
    <symbol id="cz-icon-contact" viewBox="0 0 32 32">
        <path d="M26.14 9.329h-3.884l-8.479-4.447-9.636 5.055v14.216c-1.631 0-2.965-1.334-2.965-2.965v-11.607c0-0.993 0.415-1.645 1.201-2.016l11.4-5.648 11.192 5.648c0.667 0.415 1.082 1.023 1.171 1.764zM8.588 10.811h19.271c1.631 0 2.965 1.334 2.965 2.965v13.342c0 1.631-1.334 2.965-2.965 2.965h-19.271c-1.631 0-2.965-1.334-2.965-2.965v-13.342c0-1.631 1.334-2.965 2.965-2.965zM27.86 16.252v-2.476l-9.636 4.906-9.636-4.906v2.476l9.636 4.936 9.636-4.936z"/>
    </symbol>
    <symbol id="cz-icon-typography" viewBox="0 0 32 32">
        <path d="M24.194 9.445h4.916v19.666h1.639v1.639h-6.555v-1.639h1.639v-4.916h-6.555l-2.459 4.916h2.459v1.639h-6.555v-1.639h1.639l9.834-19.666zM25.833 11.084l-5.736 11.472h5.736v-11.472zM4.527 1.25h8.195c1.819 0 3.278 1.458 3.278 3.278v18.028h-4.916v-8.195h-4.916v8.195h-4.916v-18.028c0-1.819 1.458-3.278 3.278-3.278zM6.166 4.528v6.555h4.916v-6.555h-4.916z"/>
    </symbol>
    <symbol id="cz-icon-footer" viewBox="0 0 32 32">
        <path d="M22.555 17.639h-4.916v-16.389h-3.278v16.389h-4.916l6.555 6.555 6.555-6.555zM2.89 27.472v3.278h26.221v-3.278h-26.221z"/>
    </symbol>
    <symbol id="cz-icon-header" viewBox="0 0 32 32">
        <path d="M9.445 14.361h4.916v16.389h3.278v-16.389h4.916l-6.555-6.555-6.555 6.555zM2.89 1.25v3.278h26.221v-3.278h-26.221z"/>
    </symbol>
    <symbol id="cz-icon-back" viewBox="0 0 43 32">
        <path d="M28.087 24.142l-8.142-8.142 8.142-8.16-2.507-2.507-10.667 10.667 10.667 10.667 2.507-2.524z"/>
    </symbol>
    <symbol id="cz-icon-colors" viewBox="0 0 32 32">
        <path d="M15.999 27.628c-2.43 0-4.724-0.942-6.441-2.658-1.732-1.732-2.674-4.010-2.674-6.456 0-2.4 0.942-4.724 2.674-6.441l6.441-6.441zM24.598 9.931l-8.598-8.598-8.598 8.598c-4.74 4.74-4.74 12.441 0 17.181 2.37 2.369 5.484 3.555 8.598 3.555s6.228-1.185 8.598-3.555c4.74-4.74 4.74-12.441 0-17.181z"/>
    </symbol>
    <symbol id="cz-icon-lock" viewBox="0 0 32 32">
        <path d="M16 23.726c1.546 0 2.81-1.264 2.81-2.81 0-1.559-1.264-2.81-2.81-2.81s-2.81 1.264-2.81 2.81 1.264 2.81 2.81 2.81zM24.428 11.083c1.546 0 2.81 1.264 2.81 2.81v14.047c0 1.546-1.264 2.81-2.81 2.81h-16.856c-1.546 0-2.81-1.264-2.81-2.81v-14.047c0-1.559 1.264-2.81 2.81-2.81h1.405v-2.81c0-3.877 3.146-7.024 7.024-7.024s7.024 3.146 7.024 7.024v2.81h1.405zM16 4.060c-2.332 0-4.214 1.882-4.214 4.214v2.81h8.428v-2.81c0-2.332-1.882-4.214-4.214-4.214z"/>
    </symbol>
    <symbol id="cz-icon-desktop" viewBox="0 0 32 32">
        <path d="M28.075 21.365h-24.149v-16.099h24.149zM28.075 2.583h-24.149c-1.489 0-2.684 1.194-2.684 2.684v16.099c0 1.476 1.207 2.684 2.684 2.684h9.391v2.684h-2.684v2.684h10.733v-2.684h-2.684v-2.684h9.391c1.476 0 2.684-1.207 2.684-2.684v-16.099c0-1.489-1.207-2.684-2.684-2.684z"/>
    </symbol>
    <symbol id="cz-icon-sticky-header" viewBox="0 0 32 32">
        <path d="M21.901 16v-11.799h1.475v-2.95h-14.75v2.95h1.475v11.799l-2.95 2.95v2.95h7.669v8.85h2.359v-8.85h7.669v-2.95l-2.95-2.95z"/>
    </symbol>
    <symbol id="cz-icon-widget-areas" viewBox="0 0 32 32">
        <path d="M27.237 15.297h-2.107v-5.619c0-1.559-1.264-2.81-2.81-2.81h-5.619v-2.107c0-1.938-1.573-3.511-3.511-3.511s-3.511 1.573-3.511 3.511v2.107h-5.619c-1.546 0-2.81 1.264-2.81 2.81v5.338h2.107c2.107 0 3.793 1.685 3.793 3.793s-1.685 3.793-3.793 3.793h-2.107v5.338c0 1.546 1.264 2.81 2.81 2.81h5.338v-2.107c0-2.107 1.685-3.793 3.793-3.793s3.793 1.685 3.793 3.793v2.107h5.338c1.546 0 2.81-1.264 2.81-2.81v-5.619h2.107c1.938 0 3.511-1.573 3.511-3.511s-1.573-3.511-3.511-3.511z"/>
    </symbol>
    <symbol id="cz-icon-preloader" viewBox="0 0 32 32">
        <path d="M25.578 16.011h5.017l-7.48 7.48-7.48-7.48h6.876c0.045-2.327-0.831-4.639-2.615-6.423-3.536-3.536-9.279-3.536-12.815 0s-3.536 9.293 0 12.829c2.78 2.78 6.951 3.369 10.306 1.768l2.221 2.221c-4.609 2.735-10.653 2.131-14.673-1.859-4.715-4.715-4.7-12.361 0.015-17.076 4.76-4.729 12.361-4.745 17.091-0.015 2.357 2.357 3.536 5.455 3.536 8.553z"/>
    </symbol>
    <symbol id="cz-icon-woocommerce" viewBox="0 0 32 32">
        <path d="M16 18.107c-3.877 0-7.024-3.146-7.024-7.024h2.81c0 2.332 1.882 4.214 4.214 4.214s4.214-1.882 4.214-4.214h2.81c0 3.877-3.146 7.024-7.024 7.024zM16 4.059c2.332 0 4.214 1.882 4.214 4.214h-8.429c0-2.332 1.882-4.214 4.214-4.214zM25.834 8.274h-2.81c0-3.877-3.146-7.024-7.024-7.024s-7.024 3.146-7.024 7.024h-2.81c-1.559 0-2.81 1.25-2.81 2.81v16.857c0 1.546 1.264 2.81 2.81 2.81h19.666c1.546 0 2.81-1.264 2.81-2.81v-16.857c0-1.559-1.264-2.81-2.81-2.81z"/>
    </symbol>
    <symbol id="cz-icon-tablet" viewBox="0 0 32 32">
        <path d="M24.861 24.556h-17.723v-19.556h17.723zM18.444 28.223h-4.889v-1.222h4.889zM23.333 1.333h-14.667c-2.029 0-3.666 1.638-3.666 3.666v22c0 2.029 1.638 3.666 3.666 3.666h14.667c2.029 0 3.666-1.638 3.666-3.666v-22c0-2.029-1.638-3.666-3.666-3.666z"/>
    </symbol>
    <symbol id="cz-icon-social" viewBox="0 0 32 32">
        <path d="M30.87 6.759c-1.095 0.497-2.274 0.824-3.497 0.981 1.251-0.753 2.217-1.948 2.673-3.383-1.18 0.711-2.488 1.208-3.867 1.493-1.123-1.223-2.701-1.934-4.492-1.934-3.341 0-6.070 2.729-6.070 6.099 0 0.483 0.057 0.952 0.157 1.393-5.061-0.256-9.567-2.687-12.567-6.368-0.526 0.896-0.824 1.948-0.824 3.056 0 2.118 1.066 3.995 2.716 5.061-1.009 0-1.948-0.285-2.772-0.711v0.042c0 2.957 2.104 5.43 4.891 5.985-0.512 0.142-1.052 0.214-1.606 0.214-0.384 0-0.768-0.042-1.137-0.114 0.768 2.402 2.999 4.193 5.686 4.236-2.076 1.649-4.705 2.616-7.577 2.616-0.483 0-0.967-0.029-1.45-0.085 2.701 1.735 5.914 2.744 9.354 2.744 11.202 0 17.358-9.297 17.358-17.358 0-0.27 0-0.526-0.014-0.797 1.194-0.853 2.217-1.934 3.042-3.17z"/>
    </symbol>
    <symbol id="cz-icon-lightbox" viewBox="0 0 32 32">
        <path d="M1.25 8.625h7.375v-7.375h22.125v22.125h-7.375v7.375h-22.125v-22.125zM23.375 8.625v11.063h3.688v-14.75h-14.75v3.688h11.063zM4.938 16v11.063h14.75v-11.063h-14.75z"/>
    </symbol>
    <symbol id="cz-icon-slider" viewBox="0 0 32 32">
        <path d="M3.141 4.833h25.718c1.137 0 2.030 0.88 2.030 2.030v15.566c0 1.151-0.893 2.030-2.030 2.030h-25.718c-1.151 0-2.030-0.88-2.030-2.030v-15.566c0-1.151 0.88-2.030 2.030-2.030zM12.901 10.247v8.799l7.729-4.467-7.729-4.332zM23.107 27.167h-14.347c-0.406 0-0.677-0.271-0.677-0.677s0.271-0.677 0.677-0.677h14.483c0.406 0 0.677 0.271 0.677 0.677s-0.406 0.677-0.812 0.677z"/>
    </symbol>
    <symbol id="cz-icon-default" viewBox="0 0 32 32">
        <path d="M16.003 21.056c-2.788 0-5.055-2.268-5.055-5.055s2.268-5.055 5.055-5.055 5.055 2.268 5.055 5.055-2.268 5.055-5.055 5.055zM26.736 17.401c0.058-0.462 0.101-0.925 0.101-1.401s-0.043-0.953-0.101-1.445l3.048-2.355c0.275-0.217 0.347-0.607 0.173-0.925l-2.889-4.998c-0.173-0.318-0.563-0.448-0.881-0.318l-3.597 1.445c-0.751-0.563-1.531-1.055-2.441-1.415l-0.535-3.828c-0.058-0.347-0.361-0.607-0.722-0.607h-5.778c-0.361 0-0.665 0.26-0.722 0.607l-0.535 3.828c-0.91 0.361-1.69 0.852-2.441 1.415l-3.597-1.445c-0.318-0.13-0.708 0-0.881 0.318l-2.889 4.998c-0.188 0.318-0.101 0.708 0.173 0.925l3.048 2.355c-0.058 0.491-0.101 0.968-0.101 1.445s0.043 0.939 0.101 1.401l-3.048 2.398c-0.275 0.217-0.361 0.607-0.173 0.925l2.889 4.998c0.173 0.318 0.563 0.433 0.881 0.318l3.597-1.459c0.751 0.578 1.531 1.069 2.441 1.43l0.535 3.828c0.058 0.347 0.361 0.607 0.722 0.607h5.778c0.361 0 0.665-0.26 0.722-0.607l0.535-3.828c0.91-0.375 1.69-0.852 2.441-1.43l3.597 1.459c0.318 0.115 0.708 0 0.881-0.318l2.889-4.998c0.173-0.318 0.101-0.708-0.173-0.925l-3.048-2.398z"/>
    </symbol>
    <symbol id="cz-icon-arrow" viewBox="0 0 32 32">
        <path d="M1.921 14.222v3.556h21.333l-9.778 9.778 2.524 2.524 14.080-14.080-14.080-14.080-2.524 2.524 9.778 9.778h-21.333z"/>
    </symbol>
    <symbol id="cz-icon-identity" viewBox="0 0 32 32">
        <path d="M24.147 1.333c1.793 0 3.26 1.467 3.26 3.26v26.074l-11.407-4.889-11.407 4.889v-26.074c0-1.809 1.467-3.26 3.26-3.26h16.297zM14.37 19.26l10.185-10.169-2.298-2.314-7.887 7.887-4.22-4.22-2.298 2.298 6.518 6.518z"/>
    </symbol>
    <symbol id="cz-icon-menus" viewBox="0 0 32 32">
        <path d="M1.778 3.555h28.444v3.556h-28.444v-3.556zM1.778 10.666h28.444v3.556h-28.444v-3.556zM1.778 17.777h28.444v3.556h-28.444v-3.556zM1.778 24.889h17.778v3.556h-17.778v-3.556z"/>
    </symbol>
    <symbol id="cz-icon-widgets" viewBox="0 0 32 32">
        <path d="M1.503 3.469h12.012v6.517l8.499-8.483 8.483 8.483-8.483 8.499h6.517v12.012h-12.012v-12.012h5.496l-8.499-8.499v5.496h-12.012v-12.012zM1.503 18.485h12.012v12.012h-12.012v-12.012z"/>
    </symbol>
    <symbol id="cz-icon-front-page" viewBox="0 0 32 32">
        <path d="M13.072 28.444v-8.785h5.856v8.785h7.32v-11.712h4.392l-14.641-13.177-14.641 13.177h4.392v11.712h7.32z"/>
    </symbol>
    <symbol id="cz-icon-woocommerce" viewBox="0 0 32 32">
        <path d="M16 18.107c-3.877 0-7.024-3.146-7.024-7.024h2.81c0 2.332 1.882 4.214 4.214 4.214s4.214-1.882 4.214-4.214h2.81c0 3.877-3.146 7.024-7.024 7.024zM16 4.059c2.332 0 4.214 1.882 4.214 4.214h-8.429c0-2.332 1.882-4.214 4.214-4.214zM25.834 8.274h-2.81c0-3.877-3.146-7.024-7.024-7.024s-7.024 3.146-7.024 7.024h-2.81c-1.559 0-2.81 1.25-2.81 2.81v16.857c0 1.546 1.264 2.81 2.81 2.81h19.666c1.546 0 2.81-1.264 2.81-2.81v-16.857c0-1.559-1.264-2.81-2.81-2.81z"/>
    </symbol>
    <symbol id="cz-icon-custom-css" viewBox="0 0 32 32">
        <path d="M9.482 1.332c-1.793 0-3.26 1.467-3.26 3.26v6.518c0 1.793-1.467 3.26-3.26 3.26h-1.63v3.26h1.63c1.793 0 3.26 1.467 3.26 3.26v6.518c0 1.793 1.467 3.26 3.26 3.26h3.26v-3.26h-3.26v-8.148c0-1.793-1.467-3.26-3.26-3.26 1.793 0 3.26-1.467 3.26-3.26v-8.148h3.26v-3.26zM22.518 1.332c1.793 0 3.26 1.467 3.26 3.26v6.518c0 1.793 1.467 3.26 3.26 3.26h1.63v3.26h-1.63c-1.793 0-3.26 1.467-3.26 3.26v6.518c0 1.793-1.467 3.26-3.26 3.26h-3.26v-3.26h3.26v-8.148c0-1.793 1.467-3.26 3.26-3.26-1.793 0-3.26-1.467-3.26-3.26v-8.148h-3.26v-3.26h3.26z"/>
    </symbol>
    <symbol id="cz-icon-publish-settings" viewBox="0 0 32 32">
        <path d="M16 23.333c2.017 0 3.667 1.65 3.667 3.667s-1.65 3.667-3.667 3.667-3.667-1.65-3.667-3.667 1.65-3.667 3.667-3.667zM16 12.333c2.017 0 3.667 1.65 3.667 3.667s-1.65 3.667-3.667 3.667-3.667-1.65-3.667-3.667 1.65-3.667 3.667-3.667zM16 1.333c2.017 0 3.667 1.65 3.667 3.667s-1.65 3.667-3.667 3.667-3.667-1.65-3.667-3.667 1.65-3.667 3.667-3.667z"/>
    </symbol>
    <symbol id="cz-icon-help" viewBox="0 0 32 32">
        <path d="M17.445 11.666h-2.889v-2.889h2.889zM17.445 23.222h-2.889v-8.667h2.889zM16 1.555c-7.973 0-14.445 6.471-14.445 14.445s6.471 14.445 14.445 14.445 14.445-6.471 14.445-14.445-6.471-14.445-14.445-14.445z"/>
    </symbol>
    <symbol id="cz-icon-changelog" viewBox="0 0 32 32">
        <path d="M16 26.667c5.891 0 10.667-4.776 10.667-10.667v0c0-5.891-4.776-10.667-10.667-10.667v0c-5.891 0-10.667 4.776-10.667 10.667v0c0 5.891 4.776 10.667 10.667 10.667v0zM16 2.667c7.364 0 13.333 5.97 13.333 13.333v0c0 7.364-5.97 13.333-13.333 13.333v0c-7.373 0-13.333-6-13.333-13.333 0-7.364 5.97-13.333 13.333-13.333v0zM16.667 9.333v7l6 3.56-1 1.64-7-4.2v-8h2z"/>
    </symbol>
    <symbol id="cz-icon-translate" viewBox="0 0 32 32">
        <path d="M17.16 20.093l-3.387-3.347 0.040-0.040c2.32-2.587 3.973-5.56 4.947-8.707h3.907v-2.667h-9.333v-2.667h-2.667v2.667h-9.333v2.667h14.893c-0.893 2.56-2.307 5-4.227 7.133-1.24-1.373-2.267-2.88-3.080-4.467h-2.667c0.973 2.173 2.307 4.227 3.973 6.080l-6.787 6.693 1.893 1.893 6.667-6.667 4.147 4.147 1.013-2.72zM24.667 13.333h-2.667l-6 16h2.667l1.493-4h6.333l1.507 4h2.667l-6-16zM21.173 22.667l2.16-5.773 2.16 5.773h-4.32z"/>
    </symbol>
    <symbol id="cz-icon-rate" viewBox="0 0 32 32">
        <path d="M16 20.52l-5.013 3.027 1.32-5.707-4.427-3.84 5.84-0.493 2.28-5.387 2.28 5.387 5.84 0.493-4.427 3.84 1.32 5.707zM29.333 12.32l-9.587-0.813-3.747-8.84-3.747 8.84-9.587 0.813 7.267 6.307-2.173 9.373 8.24-4.973 8.24 4.973-2.187-9.373 7.28-6.307z"/>
    </symbol>
    <symbol id="cz-icon-ok" viewBox="0 0 32 32">
        <path d="M11.549 26.642l-8.505-8.505 3.876-3.876 4.629 4.643 13.531-13.545 3.876 3.876-17.407 17.407z"/>
    </symbol>
    <symbol id="cz-icon-update" viewBox="0 0 32 32">
        <path d="M16 24.727c-4.82 0-8.727-3.907-8.727-8.727v0c0-1.455 0.364-2.865 1.018-4.073l-2.124-2.124c-1.135 1.789-1.804 3.913-1.804 6.196 0 6.427 5.21 11.636 11.636 11.636v0 4.364l5.818-5.818-5.818-5.818zM16 4.364v-4.364l-5.818 5.818 5.818 5.818v-4.364c4.82 0 8.727 3.907 8.727 8.727v0c0 1.455-0.364 2.865-1.018 4.073l2.124 2.124c1.135-1.789 1.804-3.913 1.804-6.196 0-6.427-5.21-11.636-11.636-11.636v0z"/>
    </symbol>
    <symbol id="cz-icon-fix" viewBox="0 0 32 32">
        <path d="M29.621 24.825l-11.555-11.555c1.143-2.92 0.508-6.349-1.905-8.761-2.539-2.539-6.349-3.047-9.396-1.651l5.46 5.46-3.809 3.809-5.587-5.46c-1.524 3.047-0.889 6.856 1.651 9.396 2.412 2.412 5.841 3.047 8.761 1.905l11.555 11.555c0.508 0.508 1.27 0.508 1.778 0l2.92-2.92c0.635-0.508 0.635-1.397 0.127-1.778z"/>
    </symbol>
    <symbol id="cz-icon-license-key" viewBox="0 0 32 32">
        <path d="M30 24.4v5.6h-5.6v-4.2h-4.2v-4.2h-4.2l-3.164-3.164c-0.77 0.238-1.582 0.364-2.436 0.364-4.639 0-8.4-3.761-8.4-8.4v0c0-4.639 3.761-8.4 8.4-8.4v0c4.639 0 8.4 3.761 8.4 8.4v0c0 0.854-0.126 1.666-0.364 2.436l11.564 11.564zM9 6.2c-1.546 0-2.8 1.254-2.8 2.8v0c0 1.546 1.254 2.8 2.8 2.8v0c1.546 0 2.8-1.254 2.8-2.8v0c0-1.546-1.254-2.8-2.8-2.8v0z"/>
    </symbol>
    <symbol id="cz-icon-features" viewBox="0 0 32 32">
        <path d="M29.621 24.825l-11.555-11.555c1.143-2.92 0.508-6.349-1.905-8.761-2.539-2.539-6.349-3.047-9.396-1.651l5.46 5.46-3.809 3.809-5.587-5.46c-1.524 3.047-0.889 6.856 1.651 9.396 2.412 2.413 5.841 3.047 8.761 1.905l11.555 11.555c0.508 0.508 1.27 0.508 1.778 0l2.92-2.92c0.635-0.508 0.635-1.397 0.127-1.778z"/>
    </symbol>

    <view id="cz-icon-componentz-logo-view" viewBox="0 0 32 32"/>
    <view id="cz-icon-layout-view" viewBox="0 64 32 32"/>
    <view id="cz-icon-blog-view" viewBox="0 96 32 32"/>
    <view id="cz-icon-mobile-view" viewBox="0 128 32 32"/>
    <view id="cz-icon-close-view" viewBox="0 160 32 32"/>
    <view id="cz-icon-sidebar-view" viewBox="0 192 32 32"/>
    <view id="cz-icon-logo-view" viewBox="0 224 32 32"/>
    <view id="cz-icon-menu-view" viewBox="0 256 32 32"/>
    <view id="cz-icon-button-view" viewBox="0 288 32 32"/>
    <view id="cz-icon-contact-view" viewBox="0 320 32 32"/>
    <view id="cz-icon-typography-view" viewBox="0 352 32 32"/>
    <view id="cz-icon-footer-view" viewBox="0 384 32 32"/>
    <view id="cz-icon-header-view" viewBox="0 416 32 32"/>
    <view id="cz-icon-back-view" viewBox="0 448 32 32"/>
    <view id="cz-icon-colors-view" viewBox="0 480 32 32"/>
    <view id="cz-icon-lock-view" viewBox="0 512 32 32"/>
    <view id="cz-icon-desktop-view" viewBox="0 544 32 32"/>
    <view id="cz-icon-sticky-header-view" viewBox="0 576 32 32"/>
    <view id="cz-icon-widget-areas-view" viewBox="0 608 32 32"/>
    <view id="cz-icon-preloader-view" viewBox="0 640 32 32"/>
    <view id="cz-icon-woocommerce-view" viewBox="0 672 32 32"/>
    <view id="cz-icon-tablet-view" viewBox="0 704 32 32"/>
    <view id="cz-icon-social-view" viewBox="0 736 32 32"/>
    <view id="cz-icon-lightbox-view" viewBox="0 768 32 32"/>
    <view id="cz-icon-slider-view" viewBox="0 800 32 32"/>
    <view id="cz-icon-default-view" viewBox="0 832 32 32"/>
    <view id="cz-icon-arrow-view" viewBox="0 864 32 32"/>
    <view id="cz-icon-identity-view" viewBox="0 896 32 32"/>
    <view id="cz-icon-menus-view" viewBox="0 928 32 32"/>
    <view id="cz-icon-widgets-view" viewBox="0 960 32 32"/>
    <view id="cz-icon-front-page-view" viewBox="0 992 32 32"/>
    <view id="cz-icon-woocommerce-view" viewBox="0 1024 32 32"/>
    <view id="cz-icon-custom-css-view" viewBox="0 1056 32 32"/>
    <view id="cz-icon-custom-css-view" viewBox="0 1056 32 32"/>
    <view id="cz-icon-publish-settings-view" viewBox="0 1088 32 32"/>
    <view id="cz-icon-help-view" viewBox="0 1120 32 32"/>
    <view id="cz-icon-features-view" viewBox="0 1152 32 32"/>

    <use xlink:href="#cz-icon-componentz-logo" width="32" height="32" x="0" y="0"/>
    <use xlink:href="#cz-icon-bbpress" width="32" height="32" x="0" y="32"/>
    <use xlink:href="#cz-icon-layout" width="32" height="32" x="0" y="64"/>
    <use xlink:href="#cz-icon-blog" width="32" height="32" x="0" y="96"/>
    <use xlink:href="#cz-icon-mobile" width="32" height="32" x="0" y="128"/>
    <use xlink:href="#cz-icon-close" width="32" height="32" x="0" y="160"/>
    <use xlink:href="#cz-icon-sidebar" width="32" height="32" x="0" y="192"/>
    <use xlink:href="#cz-icon-logo" width="32" height="32" x="0" y="224"/>
    <use xlink:href="#cz-icon-menu" width="32" height="32" x="0" y="256"/>
    <use xlink:href="#cz-icon-button" width="32" height="32" x="0" y="288"/>
    <use xlink:href="#cz-icon-contact" width="32" height="32" x="0" y="320"/>
    <use xlink:href="#cz-icon-typography" width="32" height="32" x="0" y="352"/>
    <use xlink:href="#cz-icon-footer" width="32" height="32" x="0" y="384"/>
    <use xlink:href="#cz-icon-header" width="32" height="32" x="0" y="416"/>
    <use xlink:href="#cz-icon-back" width="32" height="32" x="0" y="448"/>
    <use xlink:href="#cz-icon-colors" width="32" height="32" x="0" y="480"/>
    <use xlink:href="#cz-icon-lock" width="32" height="32" x="0" y="512"/>
    <use xlink:href="#cz-icon-desktop" width="32" height="32" x="0" y="544"/>
    <use xlink:href="#cz-icon-sticky-header" width="32" height="32" x="0" y="576"/>
    <use xlink:href="#cz-icon-widget-areas" width="32" height="32" x="0" y="608"/>
    <use xlink:href="#cz-icon-preloader" width="32" height="32" x="0" y="640"/>
    <use xlink:href="#cz-icon-woocommerce" width="32" height="32" x="0" y="672"/>
    <use xlink:href="#cz-icon-tablet" width="32" height="32" x="0" y="704"/>
    <use xlink:href="#cz-icon-social" width="32" height="32" x="0" y="736"/>
    <use xlink:href="#cz-icon-lightbox" width="32" height="32" x="0" y="768"/>
    <use xlink:href="#cz-icon-slider" width="32" height="32" x="0" y="800"/>
    <use xlink:href="#cz-icon-default" width="32" height="32" x="0" y="832"/>
    <use xlink:href="#cz-icon-arrow" width="32" height="32" x="0" y="864"/>
    <use xlink:href="#cz-icon-identity" width="32" height="32" x="0" y="896"/>
    <use xlink:href="#cz-icon-menus" width="32" height="32" x="0" y="928"/>
    <use xlink:href="#cz-icon-widgets" width="32" height="32" x="0" y="960"/>
    <use xlink:href="#cz-icon-front-page" width="32" height="32" x="0" y="992"/>
    <use xlink:href="#cz-icon-woocommerce" width="32" height="32" x="0" y="1024"/>
    <use xlink:href="#cz-icon-custom-css" width="32" height="32" x="0" y="1056"/>
    <use style="fill:#fff;" xlink:href="#cz-icon-publish-settings" width="32" height="32" x="0" y="1088"/>
    <use style="fill:#59717c;" xlink:href="#cz-icon-help" width="32" height="32" x="0" y="1120"/>
    <use xlink:href="#cz-icon-features" width="32" height="32" x="0" y="1152"/>

</svg>