<svg xmlns="http://www.w3.org/2000/svg" xmlns:xlink="http://www.w3.org/1999/xlink" width="100%" height="100%"
     viewBox="0 0 32 32">
    <symbol id="cz-icon-account" viewBox="0 0 32 32">
        <path d="M16 1.778c3.929 0 7.111 3.182 7.111 7.111s-3.182 7.111-7.111 7.111-7.111-3.182-7.111-7.111 3.182-7.111 7.111-7.111zM16 19.555c7.858 0 14.222 3.182 14.222 7.111v3.556h-28.444v-3.556c0-3.929 6.364-7.111 14.222-7.111z"/>
    </symbol>
    <symbol id="cz-icon-arrow-left" viewBox="0 0 32 32">
        <path d="M30.079 14.222v3.556h-21.333l9.778 9.778-2.524 2.524-14.080-14.080 14.080-14.080 2.524 2.524-9.778 9.778h21.333z"/>
    </symbol>
    <symbol id="cz-icon-arrow-right" viewBox="0 0 32 32">
        <path d="M1.921 14.222v3.556h21.333l-9.778 9.778 2.524 2.524 14.080-14.080-14.080-14.080-2.524 2.524 9.778 9.778h-21.333z"/>
    </symbol>
    <symbol id="cz-icon-search" viewBox="0 0 32 32">
        <path d="M12.343 1.777c5.835 0 10.566 4.73 10.566 10.566 0 2.617-0.959 5.022-2.535 6.875l0.439 0.439h1.284l8.127 8.127-2.438 2.438-8.127-8.127v-1.284l-0.439-0.439c-1.853 1.576-4.259 2.535-6.875 2.535-5.835 0-10.566-4.73-10.566-10.566s4.73-10.566 10.566-10.566zM12.343 5.029c-4.063 0-7.314 3.251-7.314 7.314s3.251 7.314 7.314 7.314 7.314-3.251 7.314-7.314-3.251-7.314-7.314-7.314z"/>
    </symbol>
    <symbol id="cz-icon-facebook" viewBox="0 0 32 32">
        <path d="M16 2.067c-7.727 0-13.992 6.264-13.992 13.992 0 6.931 5.044 12.67 11.658 13.782v-10.863h-3.375v-3.909h3.375v-2.882c0-3.344 2.043-5.167 5.026-5.167 1.429 0 2.657 0.106 3.014 0.153v3.496l-2.070 0.001c-1.622 0-1.935 0.771-1.935 1.902v2.495h3.871l-0.505 3.909h-3.366v10.958c6.923-0.843 12.29-6.728 12.29-13.879 0-7.723-6.264-13.988-13.992-13.988z"/>
    </symbol>
    <symbol id="cz-icon-close" viewBox="0 0 32 32">
        <path d="M29.745 24.495c-0-0-0-0-0-0l-8.494-8.494 8.494-8.494c0-0 0-0 0-0 0.091-0.091 0.158-0.198 0.2-0.312 0.116-0.311 0.050-0.675-0.2-0.925l-4.013-4.013c-0.25-0.25-0.614-0.316-0.925-0.2-0.114 0.042-0.221 0.108-0.312 0.2 0 0-0 0-0 0l-8.494 8.494-8.494-8.494c-0-0-0-0-0-0-0.091-0.091-0.198-0.158-0.312-0.2-0.311-0.116-0.675-0.050-0.925 0.2l-4.013 4.013c-0.25 0.25-0.316 0.614-0.2 0.925 0.042 0.114 0.109 0.221 0.2 0.312 0 0 0 0 0 0l8.494 8.494-8.494 8.494c-0 0-0 0-0 0-0.091 0.091-0.158 0.198-0.2 0.312-0.116 0.311-0.050 0.675 0.2 0.925l4.013 4.013c0.25 0.25 0.614 0.316 0.925 0.2 0.114-0.042 0.221-0.109 0.312-0.2 0-0 0-0 0-0l8.494-8.494 8.494 8.494c0 0 0 0 0 0 0.092 0.091 0.198 0.158 0.312 0.2 0.311 0.116 0.675 0.050 0.925-0.2l4.013-4.013c0.25-0.25 0.316-0.614 0.2-0.925-0.042-0.114-0.109-0.221-0.2-0.312z"/>
    </symbol>
    <symbol id="cz-icon-reply" viewBox="0 0 32 32">
        <path d="M12.8 10.4v-6.4l-11.2 11.2 11.2 11.2v-6.56c8 0 13.6 2.56 17.6 8.16-1.6-8-6.4-16-17.6-17.6z"/>
    </symbol>
    <symbol id="cz-icon-rss" viewBox="0 0 32 32">
        <path d="M6.045 22.079c2.133 0 3.876 1.742 3.876 3.876 0 2.098-1.742 3.876-3.876 3.876-2.098 0-3.876-1.778-3.876-3.876 0-2.133 1.742-3.876 3.876-3.876zM2.169 2.168c15.271 0 27.662 12.391 27.662 27.662h-5.031c0-12.498-10.133-22.631-22.631-22.631v-5.031zM2.169 12.232c9.724 0 17.6 7.876 17.6 17.6h-5.031c0-6.933-5.636-12.569-12.569-12.569v-5.031z"/>
    </symbol>
    <symbol id="cz-icon-menu" viewBox="0 0 32 32">
        <path d="M6.143 4.5h19.714v3.286h-19.714zM7.785 14.358h16.429v3.286h-16.429zM5.322 24.214h21.357v3.286h-21.357z"/>
    </symbol>
    <symbol id="cz-icon-youtube" viewBox="0 0 32 32">
        <path d="M13.206 20.19l7.25-4.19-7.25-4.19v8.381zM29.354 9.252c0.181 0.657 0.307 1.537 0.391 2.654 0.097 1.117 0.14 2.081 0.14 2.92l0.084 1.173c0 3.059-0.223 5.308-0.614 6.747-0.349 1.257-1.16 2.067-2.417 2.417-0.657 0.181-1.857 0.307-3.702 0.391-1.816 0.097-3.478 0.14-5.015 0.14l-2.221 0.084c-5.853 0-9.499-0.223-10.937-0.614-1.257-0.349-2.067-1.16-2.417-2.417-0.181-0.657-0.307-1.537-0.391-2.654-0.097-1.117-0.14-2.081-0.14-2.92l-0.084-1.173c0-3.059 0.223-5.308 0.614-6.747 0.349-1.257 1.16-2.067 2.417-2.417 0.657-0.181 1.857-0.307 3.702-0.391 1.816-0.097 3.478-0.14 5.014-0.14l2.221-0.084c5.853 0 9.499 0.223 10.937 0.614 1.257 0.349 2.067 1.16 2.417 2.417z"/>
    </symbol>
    <symbol id="cz-icon-back" viewBox="0 0 43 32">
        <path d="M28.087 24.142l-8.142-8.142 8.142-8.16-2.507-2.507-10.667 10.667 10.667 10.667 2.507-2.524z"/>
    </symbol>
    <symbol id="cz-icon-twitter" viewBox="0 0 32 32">
        <path d="M30.87 6.759c-1.095 0.497-2.274 0.824-3.497 0.981 1.251-0.753 2.217-1.948 2.673-3.383-1.18 0.711-2.488 1.208-3.867 1.493-1.123-1.223-2.701-1.934-4.492-1.934-3.341 0-6.070 2.729-6.070 6.099 0 0.483 0.057 0.952 0.157 1.393-5.061-0.256-9.567-2.687-12.567-6.368-0.526 0.896-0.824 1.948-0.824 3.056 0 2.118 1.066 3.995 2.716 5.061-1.009 0-1.948-0.285-2.772-0.711v0.042c0 2.957 2.104 5.43 4.891 5.985-0.512 0.142-1.052 0.214-1.606 0.214-0.384 0-0.768-0.042-1.137-0.114 0.768 2.402 2.999 4.193 5.686 4.236-2.076 1.649-4.705 2.616-7.577 2.616-0.483 0-0.967-0.029-1.45-0.085 2.701 1.735 5.914 2.744 9.354 2.744 11.202 0 17.358-9.297 17.358-17.358 0-0.27 0-0.526-0.014-0.797 1.194-0.853 2.217-1.934 3.042-3.17z"/>
    </symbol>
    <symbol id="cz-icon-not-found" viewBox="0 0 32 32">
        <path d="M25.341 16.107c0.044-0.397 0.066-0.735 0.066-1.014 0-1.44-0.242-1.448-1.176-1.448h-5.549c0.537-0.882 0.845-1.793 0.845-2.719 0-2.785-4.211-4.145-4.211-6.467 0-0.86 0.375-1.565 0.683-2.565-1.948 0.514-3.484 2.462-3.484 4.527 0 3.55 4.138 3.579 4.138 6.232 0 0.331-0.103 0.625-0.154 0.992h-4.108c0.059-0.22 0.096-0.456 0.096-0.683 0-1.676-2.874-2.491-2.874-3.88 0-0.514 0.073-0.941 0.235-1.543-0.948 0.375-2.080 1.47-2.080 2.705 0 1.962 2.344 2.153 2.704 3.403h-7.408c-0.933 0-1.176 0.007-1.176 1.448s0.566 4.505 2.080 8.158c1.514 3.653 3.263 5.262 4.498 6.335l0.007-0.015c0.375 0.338 0.867 0.537 1.411 0.537h7.526c0.544 0 1.036-0.198 1.411-0.537l0.007 0.015c0.661-0.573 1.47-1.308 2.308-2.418 0.345 0.147 0.72 0.272 1.132 0.367 0.617 0.147 1.235 0.22 1.823 0.22 1.764 0 3.351-0.676 4.468-1.896 0.985-1.073 1.551-2.528 1.551-3.983 0-2.859-2.058-5.247-4.77-5.769zM24.092 25.425c-0.632 0-1.146-0.088-1.624-0.309 0.294-0.588 0.581-1.169 0.86-1.845 0.742-1.793 1.257-3.454 1.587-4.836 1.617 0.316 2.844 1.749 2.844 3.462 0 1.668-1.264 3.528-3.667 3.528z"/>
    </symbol>
    <symbol id="cz-icon-pencil" viewBox="0 0 32 32">
        <path d="M28.312 9.313c0.585-0.585 0.585-1.56 0-2.115l-3.509-3.509c-0.555-0.585-1.529-0.585-2.115 0l-2.939 2.939 5.624 5.624zM23.872 13.752l-5.624-5.624-14.998 14.998v5.624h5.624l14.998-14.998z"/>
    </symbol>
    <symbol id="cz-icon-chat" viewBox="0 0 32 32">
        <path d="M11.601 30.666c-0.807 0-1.467-0.66-1.467-1.467v-4.4h-5.866c-1.614 0-2.934-1.32-2.934-2.934v-17.599c0-1.628 1.32-2.934 2.934-2.934h23.465c1.614 0 2.934 1.32 2.934 2.934v17.599c0 1.614-1.32 2.934-2.934 2.934h-8.946l-5.427 5.441c-0.294 0.279-0.66 0.426-1.026 0.426h-0.733zM5.734 5.734v2.934h20.533v-2.934h-20.533zM5.734 11.6v2.934h11.733v-2.934h-11.733zM5.734 17.466v2.934h14.666v-2.934h-14.666z"/>
    </symbol>
    <symbol id="cz-icon-status" viewBox="0 0 32 32">
        <path d="M22.666 16c0-1.834 1.5-3.334 3.334-3.334s3.334 1.5 3.334 3.334-1.5 3.334-3.334 3.334-3.334-1.5-3.334-3.334zM12.667 16c0-1.834 1.5-3.334 3.334-3.334s3.334 1.5 3.334 3.334-1.5 3.334-3.334 3.334-3.334-1.5-3.334-3.334zM2.666 16c0-1.834 1.5-3.334 3.334-3.334s3.334 1.5 3.334 3.334-1.5 3.334-3.334 3.334-3.334-1.5-3.334-3.334z"/>
    </symbol>
    <symbol id="cz-icon-quote" viewBox="0 0 32 32">
        <path d="M20.089 26.222h6.133l4.089-8.178v-12.267h-12.267v12.267h6.133zM3.734 26.222h6.133l4.089-8.178v-12.267h-12.267v12.267h6.133l-4.089 8.178z"/>
    </symbol>
    <symbol id="cz-icon-audio" viewBox="0 0 32 32">
        <path d="M16.001 1.333c-7.72 0-13.895 6.175-13.895 13.895v10.807c0 2.563 2.069 4.631 4.631 4.631h4.631v-12.351h-6.175v-3.088c0-5.975 4.832-10.807 10.807-10.807s10.807 4.832 10.807 10.807v3.088h-6.175v12.351h4.631c2.563 0 4.631-2.069 4.631-4.631v-10.807c0-7.72-6.222-13.895-13.895-13.895z"/>
    </symbol>
    <symbol id="cz-icon-gallery" viewBox="0 0 32 32">
        <path d="M30.444 21.777v-17.333c0-1.589-1.3-2.889-2.889-2.889h-17.333c-1.589 0-2.889 1.3-2.889 2.889v17.333c0 1.589 1.3 2.889 2.889 2.889h17.333c1.589 0 2.889-1.3 2.889-2.889zM14.556 16l2.932 3.915 4.29-5.359 5.778 7.222h-17.333zM1.556 7.333v20.222c0 1.589 1.3 2.889 2.889 2.889h20.222v-2.889h-20.222v-20.222z"/>
    </symbol>
    <symbol id="cz-icon-link" viewBox="0 0 32 32">
        <path d="M4.12 16c0-2.508 2.039-4.547 4.547-4.547h5.867v-2.787h-5.867c-4.048 0-7.333 3.285-7.333 7.333s3.285 7.333 7.333 7.333h5.867v-2.787h-5.867c-2.508 0-4.547-2.039-4.547-4.547zM10.133 17.467h11.733v-2.934h-11.733v2.934zM23.333 8.667h-5.866v2.787h5.867c2.508 0 4.547 2.039 4.547 4.547s-2.039 4.547-4.547 4.547h-5.867v2.787h5.867c4.048 0 7.333-3.285 7.333-7.333s-3.285-7.333-7.333-7.333z"/>
    </symbol>
    <symbol id="cz-icon-aside" viewBox="0 0 32 32">
        <path d="M2.126 6.223v2.794h16.762v-2.794h-16.762zM2.126 11.81v2.794h16.762v-2.794h-16.762zM27.325 11.991c-0.196 0-0.391 0.084-0.544 0.237l-1.397 1.397 2.863 2.863 1.397-1.397c0.307-0.293 0.307-0.783 0-1.076l-1.788-1.788c-0.154-0.154-0.335-0.237-0.531-0.237zM24.572 14.436l-8.479 8.464v2.877h2.877l8.464-8.479-2.863-2.863zM2.126 17.397v2.794h11.174v-2.794h-11.174z"/>
    </symbol>
    <symbol id="cz-icon-video" viewBox="0 0 32 32">
        <path d="M23.778 13.666v-5.444c0-0.856-0.7-1.556-1.556-1.556h-18.666c-0.856 0-1.556 0.7-1.556 1.556v15.556c0 0.856 0.7 1.556 1.556 1.556h18.666c0.856 0 1.556-0.7 1.556-1.556v-5.444l6.222 6.222v-17.112l-6.222 6.222z"/>
    </symbol>
    <symbol id="cz-icon-image" viewBox="0 0 32 32">
        <path d="M4.74 6.148h4.222l2.815-2.815h8.445l2.815 2.815h4.222c1.549 0 2.815 1.267 2.815 2.815v16.889c0 1.549-1.267 2.815-2.815 2.815h-22.518c-1.548 0-2.815-1.267-2.815-2.815v-16.889c0-1.548 1.267-2.815 2.815-2.815zM15.999 10.37c-3.885 0-7.037 3.152-7.037 7.037s3.152 7.037 7.037 7.037 7.037-3.152 7.037-7.037-3.152-7.037-7.037-7.037zM15.999 13.185c2.336 0 4.222 1.886 4.222 4.222s-1.886 4.222-4.222 4.222-4.222-1.886-4.222-4.222 1.886-4.222 4.222-4.222z"/>
    </symbol>
    <symbol id="cz-icon-componentz-logo" viewBox="0 0 32 32">
        <path d="M3.465 11.052v13.144l11.291 6.471 0.014-13.061z"/>
        <path d="M26.805 11.052l0.014 13.061-11.326 6.554 0.022-13.055z"/>
        <path d="M17.166 1.333l0.008 13.119 11.362-6.471z"/>
        <path d="M15.138 3.772l-0.008 13.119-11.362-6.471z"/>
    </symbol>
    <symbol id="cz-icon-woocommerce" viewBox="0 0 32 32">
        <path d="M16 18.107c-3.877 0-7.024-3.146-7.024-7.024h2.81c0 2.332 1.882 4.214 4.214 4.214s4.214-1.882 4.214-4.214h2.81c0 3.877-3.146 7.024-7.024 7.024zM16 4.059c2.332 0 4.214 1.882 4.214 4.214h-8.429c0-2.332 1.882-4.214 4.214-4.214zM25.834 8.274h-2.81c0-3.877-3.146-7.024-7.024-7.024s-7.024 3.146-7.024 7.024h-2.81c-1.559 0-2.81 1.25-2.81 2.81v16.857c0 1.546 1.264 2.81 2.81 2.81h19.666c1.546 0 2.81-1.264 2.81-2.81v-16.857c0-1.559-1.264-2.81-2.81-2.81z"/>
    </symbol>

    <view id="cz-icon-link-view" viewBox="0 0 32 32"/>
    <use xlink:href="#cz-icon-link" width="32" height="32" x="0" y="0"/>

</svg>